<mxfile host="app.diagrams.net" modified="2023-09-20T06:14:51.840Z" agent="Mozilla/5.0 (X11; Linux x86_64) AppleWebKit/537.36 (KHTML, like Gecko) Chrome/117.0.0.0 Safari/537.36" version="21.7.5" etag="xadspP-SMjRLyrGM4HT6" type="github">
  <diagram name="Page-1" id="k6YNR0OD9_SzV_nvRG_g">
    <mxGraphModel>
      <root>
        <mxCell id="0" />
        <mxCell id="1" parent="0" />
      </root>
    </mxGraphModel>
  </diagram>
</mxfile>
